{
    "asset" : {
        "generator" : "Khronos glTF Blender I/O v1.3.48",
        "version" : "2.0"
    },
    "scene" : 0,
    "scenes" : [
        {
            "name" : "Scene",
            "nodes" : [
                0,
                1,
                2,
                3
            ]
        }
    ],
    "nodes" : [
        {
            "name" : "Light",
            "rotation" : [
                0.48290976881980896,
                0.7861143350601196,
                -0.1544409692287445,
                0.3535114824771881
            ],
            "scale" : [
                247.3588409423828,
                -3879.587158203125,
                -1936.4525146484375
            ],
            "translation" : [
                -7.518533229827881,
                15.434803009033203,
                4.902953147888184
            ]
        },
        {
            "mesh" : 0,
            "name" : "Gear01",
            "rotation" : [
                0,
                0.9994217157363892,
                0,
                0.03400338813662529
            ],
            "scale" : [
                1,
                0.35275328159332275,
                1
            ],
            "translation" : [
                -11.686954498291016,
                0,
                0
            ]
        },
        {
            "mesh" : 1,
            "name" : "Gear01.001",
            "rotation" : [
                0,
                0.9989676475524902,
                0,
                0.04542934149503708
            ],
            "scale" : [
                1,
                0.35275328159332275,
                1
            ],
            "translation" : [
                8.59149169921875,
                0,
                0
            ]
        },
        {
            "name" : "Camera",
            "rotation" : [
                0.06139349192380905,
                0,
                0,
                0.9981136322021484
            ],
            "scale" : [
                67.14762115478516,
                43.86213302612305,
                43.86213302612305
            ],
            "translation" : [
                -1.9387643337249756,
                108.92450714111328,
                14.600506782531738
            ]
        }
    ],
    "animations" : [
        {
            "channels" : [
                {
                    "sampler" : 0,
                    "target" : {
                        "node" : 1,
                        "path" : "translation"
                    }
                },
                {
                    "sampler" : 1,
                    "target" : {
                        "node" : 1,
                        "path" : "rotation"
                    }
                },
                {
                    "sampler" : 2,
                    "target" : {
                        "node" : 1,
                        "path" : "scale"
                    }
                }
            ],
            "name" : "Gear01Action",
            "samplers" : [
                {
                    "input" : 5,
                    "interpolation" : "LINEAR",
                    "output" : 6
                },
                {
                    "input" : 5,
                    "interpolation" : "LINEAR",
                    "output" : 7
                },
                {
                    "input" : 5,
                    "interpolation" : "LINEAR",
                    "output" : 8
                }
            ]
        },
        {
            "channels" : [
                {
                    "sampler" : 0,
                    "target" : {
                        "node" : 2,
                        "path" : "translation"
                    }
                },
                {
                    "sampler" : 1,
                    "target" : {
                        "node" : 2,
                        "path" : "rotation"
                    }
                },
                {
                    "sampler" : 2,
                    "target" : {
                        "node" : 2,
                        "path" : "scale"
                    }
                }
            ],
            "name" : "Gear01.001Action",
            "samplers" : [
                {
                    "input" : 5,
                    "interpolation" : "LINEAR",
                    "output" : 9
                },
                {
                    "input" : 5,
                    "interpolation" : "LINEAR",
                    "output" : 10
                },
                {
                    "input" : 5,
                    "interpolation" : "LINEAR",
                    "output" : 11
                }
            ]
        }
    ],
    "materials" : [
        {
            "doubleSided" : true,
            "emissiveFactor" : [
                0,
                0,
                0
            ],
            "name" : "Material.007",
            "pbrMetallicRoughness" : {
                "baseColorFactor" : [
                    0.8000000715255737,
                    0.37885531783103943,
                    0,
                    1
                ],
                "metallicFactor" : 0,
                "roughnessFactor" : 0.5
            }
        },
        {
            "doubleSided" : true,
            "emissiveFactor" : [
                0,
                0,
                0
            ],
            "name" : "Material.003",
            "pbrMetallicRoughness" : {
                "baseColorFactor" : [
                    0.800000011920929,
                    0.800000011920929,
                    0.800000011920929,
                    1
                ],
                "metallicFactor" : 0,
                "roughnessFactor" : 0.5
            }
        }
    ],
    "meshes" : [
        {
            "name" : "Gear01",
            "primitives" : [
                {
                    "attributes" : {
                        "POSITION" : 0,
                        "NORMAL" : 1
                    },
                    "indices" : 2,
                    "material" : 0
                }
            ]
        },
        {
            "name" : "Gear01.001",
            "primitives" : [
                {
                    "attributes" : {
                        "POSITION" : 3,
                        "NORMAL" : 4
                    },
                    "indices" : 2,
                    "material" : 1
                }
            ]
        }
    ],
    "accessors" : [
        {
            "bufferView" : 0,
            "componentType" : 5126,
            "count" : 5318,
            "max" : [
                11.000486373901367,
                5,
                11.000486373901367
            ],
            "min" : [
                -11.000486373901367,
                0,
                -11.000486373901367
            ],
            "type" : "VEC3"
        },
        {
            "bufferView" : 1,
            "componentType" : 5126,
            "count" : 5318,
            "type" : "VEC3"
        },
        {
            "bufferView" : 2,
            "componentType" : 5123,
            "count" : 7272,
            "type" : "SCALAR"
        },
        {
            "bufferView" : 3,
            "componentType" : 5126,
            "count" : 5318,
            "max" : [
                11.000486373901367,
                5,
                11.000486373901367
            ],
            "min" : [
                -11.000486373901367,
                0,
                -11.000486373901367
            ],
            "type" : "VEC3"
        },
        {
            "bufferView" : 4,
            "componentType" : 5126,
            "count" : 5318,
            "type" : "VEC3"
        },
        {
            "bufferView" : 5,
            "componentType" : 5126,
            "count" : 121,
            "max" : [
                5
            ],
            "min" : [
                0
            ],
            "type" : "SCALAR"
        },
        {
            "bufferView" : 6,
            "componentType" : 5126,
            "count" : 121,
            "type" : "VEC3"
        },
        {
            "bufferView" : 7,
            "componentType" : 5126,
            "count" : 121,
            "type" : "VEC4"
        },
        {
            "bufferView" : 8,
            "componentType" : 5126,
            "count" : 121,
            "type" : "VEC3"
        },
        {
            "bufferView" : 9,
            "componentType" : 5126,
            "count" : 121,
            "type" : "VEC3"
        },
        {
            "bufferView" : 10,
            "componentType" : 5126,
            "count" : 121,
            "type" : "VEC4"
        },
        {
            "bufferView" : 11,
            "componentType" : 5126,
            "count" : 121,
            "type" : "VEC3"
        }
    ],
    "bufferViews" : [
        {
            "buffer" : 0,
            "byteLength" : 63816,
            "byteOffset" : 0
        },
        {
            "buffer" : 0,
            "byteLength" : 63816,
            "byteOffset" : 63816
        },
        {
            "buffer" : 0,
            "byteLength" : 14544,
            "byteOffset" : 127632
        },
        {
            "buffer" : 0,
            "byteLength" : 63816,
            "byteOffset" : 142176
        },
        {
            "buffer" : 0,
            "byteLength" : 63816,
            "byteOffset" : 205992
        },
        {
            "buffer" : 0,
            "byteLength" : 484,
            "byteOffset" : 269808
        },
        {
            "buffer" : 0,
            "byteLength" : 1452,
            "byteOffset" : 270292
        },
        {
            "buffer" : 0,
            "byteLength" : 1936,
            "byteOffset" : 271744
        },
        {
            "buffer" : 0,
            "byteLength" : 1452,
            "byteOffset" : 273680
        },
        {
            "buffer" : 0,
            "byteLength" : 1452,
            "byteOffset" : 275132
        },
        {
            "buffer" : 0,
            "byteLength" : 1936,
            "byteOffset" : 276584
        },
        {
            "buffer" : 0,
            "byteLength" : 1452,
            "byteOffset" : 278520
        }
    ],
    "buffers" : [
        {
            "byteLength" : 279972,
            "uri" : "data:application/octet-stream;base64,"
        }
    ]
}
